<svg width="1024" height="1024" xmlns="http://www.w3.org/2000/svg" t="1668998331545" class="icon" version="1.1" p-id="21117">
 <g>
  <title>Layer 1</title>
  <g stroke="null">
   <path stroke="null" fill="#2f4867" p-id="14318" d="m894.29229,165.06595c-41.53897,-32.09815 -96.76935,-49.77542 -155.51824,-49.77542s-113.97832,17.67727 -155.51729,49.77177l-384.79253,297.30823c-41.54464,32.09524 -64.42381,74.76749 -64.42381,120.15899c0,45.39077 22.87917,88.06376 64.41909,120.15462c41.53897,32.09815 96.76841,49.77542 155.51729,49.77542c58.74793,0 113.97832,-17.67726 155.51729,-49.77177l384.79253,-297.30822c41.5437,-32.09524 64.42286,-74.76749 64.42286,-120.15899c0,-45.39078 -22.87916,-88.06376 -64.41719,-120.15462zm-437.81265,496.66388c-27.37717,21.15259 -63.78244,32.80534 -102.50284,32.80534c-38.72135,0 -75.12568,-11.65275 -102.50758,-32.80825c-27.37716,-21.15259 -42.45897,-49.28062 -42.45897,-79.19739c0,-29.9175 15.08181,-58.04481 42.46369,-79.19739l156.89352,-121.22305c43.22785,21.82619 149.29074,80.69641 205.52992,157.99193l-157.41775,121.62881zm384.79727,-297.31188l-179.50915,138.69669c-60.00042,-74.93097 -155.49179,-131.2082 -206.03054,-157.60513l180.534,-139.48853c27.37717,-21.15259 63.78244,-32.80534 102.50284,-32.80534s75.12568,11.65275 102.50285,32.80534l0.00473,0.00365c27.37716,21.15185 42.45803,49.27988 42.45803,79.19666c0,29.91678 -15.08087,58.04407 -42.46275,79.19666zm-187.32445,-84.99202c12.8073,9.89904 12.8073,25.94374 0,35.84204l-44.77882,34.59846c-6.40601,4.94586 -14.80317,7.42062 -23.19465,7.42062c-8.39148,0 -16.78863,-2.47476 -23.19464,-7.42062c-12.80731,-9.89904 -12.80731,-25.943 0,-35.84204l44.77881,-34.59846c12.81203,-9.89174 33.57727,-9.89174 46.3893,0zm75.53751,-58.35132c6.93213,5.35601 10.96352,12.81605 10.96352,20.49065c0,7.60089 -4.03139,15.06093 -10.96352,20.49139c-6.93781,5.35674 -16.68379,8.47081 -26.5214,8.47081c-9.84233,0 -19.49291,-3.11407 -26.52139,-8.47081c-6.93686,-5.43046 -10.96352,-12.8905 -10.96352,-20.49139c0,-7.67533 4.02666,-15.13463 10.96352,-20.49065c7.02848,-5.43046 16.67906,-8.47154 26.52139,-8.47154c9.83761,0 19.58454,3.04108 26.5214,8.47154z"/>
  </g>
  <path stroke="null" p-id="20028" fill="#324C6C" d="m492.82899,838.77168l-400.29178,0c-42.45744,0 -76.87723,-38.52099 -76.87723,-86.03733l0,-652.69697c0,-47.51634 34.41979,-86.03733 76.87723,-86.03733l848.30046,0c42.45744,0 76.87723,38.52099 76.87723,86.03733l0,652.69697c0,47.51634 -34.41979,86.03733 -76.87723,86.03733l-400.29178,0l0,124.60578l243.88638,0a23.85845,26.70124 0 0 1 0,53.40248l-530.18779,0a23.85845,26.70124 0 0 1 0,-53.40248l238.5845,0l0,-124.60578zm-400.29178,-771.36914a29.16033,32.63485 0 0 0 -29.16033,32.63485l0,652.69697a29.16033,32.63485 0 0 0 29.16033,32.63485l848.30046,0a29.16033,32.63485 0 0 0 29.16033,-32.63485l0,-652.69697a29.16033,32.63485 0 0 0 -29.16033,-32.63485l-848.30046,0z"/>
 </g>

</svg>