<svg width="1024" height="1024" xmlns="http://www.w3.org/2000/svg" t="1668998331545" class="icon" version="1.1" p-id="21117">
 <g>
  <title>Layer 1</title>
  <path d="m320,256a64.81067,64.81067 0 0 0 -64,64l0,384a64.81067,64.81067 0 0 0 64,64l384,0a64.81067,64.81067 0 0 0 64,-64l0,-384a64.81067,64.81067 0 0 0 -64,-64l-384,0zm0,-64l384,0c36.01067,0.68267 66.176,13.184 90.496,37.504c24.32,24.32 36.82133,54.528 37.504,90.496l0,384c-0.64,36.01067 -13.14133,66.176 -37.504,90.496c-24.32,24.32 -54.48533,36.82133 -90.496,37.504l-384,0c-36.01067,-0.64 -66.176,-13.14133 -90.496,-37.504c-24.32,-24.32 -36.82133,-54.48533 -37.504,-90.496l0,-384c0.68267,-36.01067 13.184,-66.176 37.504,-90.496c24.32,-24.32 54.528,-36.82133 90.496,-37.504zm192,-128a31.14667,31.14667 0 0 1 23.04,8.96c5.97333,6.016 8.96,13.696 8.96,23.04l0,128l-64,0l0,-128a31.14667,31.14667 0 0 1 8.96,-23.04a31.14667,31.14667 0 0 1 23.04,-8.96zm160,0a31.14667,31.14667 0 0 1 23.04,8.96c5.97333,6.016 8.96,13.696 8.96,23.04l0,128l-64,0l0,-128a31.14667,31.14667 0 0 1 8.96,-23.04a31.14667,31.14667 0 0 1 23.04,-8.96zm-320,0a31.14667,31.14667 0 0 1 23.04,8.96c5.97333,6.016 8.96,13.696 8.96,23.04l0,128l-64,0l0,-128a31.14667,31.14667 0 0 1 8.96,-23.04a31.14667,31.14667 0 0 1 23.04,-8.96zm160,896a31.14667,31.14667 0 0 1 -23.04,-8.96a31.14667,31.14667 0 0 1 -8.96,-23.04l0,-128l64,0l0,128a31.14667,31.14667 0 0 1 -8.96,23.04a31.14667,31.14667 0 0 1 -23.04,8.96zm160,0a31.14667,31.14667 0 0 1 -23.04,-8.96a31.14667,31.14667 0 0 1 -8.96,-23.04l0,-128l64,0l0,128a31.14667,31.14667 0 0 1 -8.96,23.04a31.14667,31.14667 0 0 1 -23.04,8.96zm-320,0a31.14667,31.14667 0 0 1 -23.04,-8.96a31.14667,31.14667 0 0 1 -8.96,-23.04l0,-128l64,0l0,128a31.14667,31.14667 0 0 1 -8.96,23.04a31.14667,31.14667 0 0 1 -23.04,8.96zm-288,-448a31.14667,31.14667 0 0 1 8.96,-23.04a31.14667,31.14667 0 0 1 23.04,-8.96l128,0l0,64l-128,0a31.14667,31.14667 0 0 1 -23.04,-8.96a31.14667,31.14667 0 0 1 -8.96,-23.04zm0,-160a31.14667,31.14667 0 0 1 8.96,-23.04a31.14667,31.14667 0 0 1 23.04,-8.96l128,0l0,64l-128,0a31.14667,31.14667 0 0 1 -23.04,-8.96a31.14667,31.14667 0 0 1 -8.96,-23.04zm0,320a31.14667,31.14667 0 0 1 8.96,-23.04a31.14667,31.14667 0 0 1 23.04,-8.96l128,0l0,64l-128,0a31.14667,31.14667 0 0 1 -23.04,-8.96a31.14667,31.14667 0 0 1 -8.96,-23.04zm896,-160a31.14667,31.14667 0 0 1 -8.96,23.04a31.14667,31.14667 0 0 1 -23.04,8.96l-128,0l0,-64l128,0a31.14667,31.14667 0 0 1 23.04,8.96c5.97333,6.016 8.96,13.696 8.96,23.04zm0,-160a31.14667,31.14667 0 0 1 -8.96,23.04a31.14667,31.14667 0 0 1 -23.04,8.96l-128,0l0,-64l128,0a31.14667,31.14667 0 0 1 23.04,8.96c5.97333,6.016 8.96,13.696 8.96,23.04zm0,320a31.14667,31.14667 0 0 1 -8.96,23.04a31.14667,31.14667 0 0 1 -23.04,8.96l-128,0l0,-64l128,0a31.14667,31.14667 0 0 1 23.04,8.96c5.97333,6.016 8.96,13.696 8.96,23.04z" p-id="21118" fill="#324C6C" id="svg_1"/>
  <g stroke="null">
   <path stroke="null" fill="#2f4867" p-id="14318" d="m725.19671,296.17004c-25.64079,-25.95856 -59.7329,-40.2546 -95.99687,-40.2546s-70.35549,14.29604 -95.99629,40.25165l-237.5212,240.44042c-25.6443,25.9562 -39.76694,60.4663 -39.76694,97.17551c0,36.70862 14.12264,71.21931 39.76402,97.17197c25.64079,25.95856 59.73232,40.25459 95.99629,40.25459c36.26338,0 70.35549,-14.29603 95.99629,-40.25165l237.5212,-240.44041c25.64371,-25.9562 39.76635,-60.4663 39.76635,-97.17551c0,-36.70863 -14.12264,-71.21931 -39.76285,-97.17197zm-270.24898,401.66419c-16.89913,17.10661 -39.37104,26.53047 -63.27201,26.53047c-23.90156,0 -46.37289,-9.42386 -63.27494,-26.53283c-16.89912,-17.10661 -26.20868,-39.85444 -26.20868,-64.04886c0,-24.19501 9.30956,-46.94225 26.2116,-64.04886l96.84579,-98.03604c26.68329,17.65137 92.15282,65.26115 126.86762,127.77193l-97.16938,98.36419zm237.52413,-240.44336l-110.80576,112.1674c-37.03651,-60.5985 -95.98055,-106.11127 -127.17664,-127.45912l111.43837,-112.80778c16.89913,-17.10661 39.37104,-26.53047 63.27201,-26.53047s46.37289,9.42386 63.27202,26.53047l0.00292,0.00295c16.89912,17.10602 26.2081,39.85384 26.2081,64.04827c0,24.19443 -9.30898,46.94166 -26.21102,64.04827zm-115.62992,-68.73512c7.90557,8.00559 7.90557,20.98133 0,28.98633l-27.64066,27.98062c-3.95424,3.99984 -9.13756,6.00124 -14.31738,6.00124c-5.17982,0 -10.36313,-2.0014 -14.31737,-6.00124c-7.90558,-8.00559 -7.90558,-20.98074 0,-28.98633l27.64065,-27.98062c7.90849,-7.99969 20.72627,-7.99969 28.63476,0zm46.6271,-47.19014c4.279,4.33154 6.76746,10.36466 6.76746,16.57129c0,6.14703 -2.48846,12.18014 -6.76746,16.57189c-4.28251,4.33213 -10.29842,6.85055 -16.37089,6.85055c-6.07538,0 -12.03241,-2.51842 -16.37088,-6.85055c-4.28192,-4.39175 -6.76746,-10.42486 -6.76746,-16.57189c0,-6.20722 2.48554,-12.23975 6.76746,-16.57129c4.33848,-4.39174 10.2955,-6.85114 16.37088,-6.85114c6.07247,0 12.08897,2.4594 16.37089,6.85114z"/>
  </g>
 </g>

</svg>